<svg viewBox="0 0 64 64" xmlns="http://www.w3.org/2000/svg">
  <!-- Circle background -->
  <circle cx="32" cy="32" r="32" fill="#f43f5e"/>
  
  <!-- Cake base -->
  <rect x="16" y="40" width="32" height="16" rx="2" fill="#fbbf24"/>
  
  <!-- Cake middle layer -->
  <rect x="18" y="32" width="28" height="12" rx="2" fill="#f59e0b"/>
  
  <!-- Cake top layer -->
  <rect x="20" y="24" width="24" height="12" rx="2" fill="#d97706"/>
  
  <!-- Candles -->
  <rect x="26" y="16" width="2" height="8" fill="#fef3c7"/>
  <rect x="30" y="14" width="2" height="10" fill="#fef3c7"/>
  <rect x="34" y="16" width="2" height="8" fill="#fef3c7"/>
  
  <!-- Flames -->
  <ellipse cx="27" cy="15" rx="1" ry="2" fill="#fb923c"/>
  <ellipse cx="31" cy="13" rx="1" ry="2" fill="#fb923c"/>
  <ellipse cx="35" cy="15" rx="1" ry="2" fill="#fb923c"/>
  
  <!-- Decorative dots -->
  <circle cx="22" cy="30" r="1" fill="#fde047"/>
  <circle cx="26" cy="28" r="1" fill="#fde047"/>
  <circle cx="30" cy="30" r="1" fill="#fde047"/>
  <circle cx="34" cy="28" r="1" fill="#fde047"/>
  <circle cx="38" cy="30" r="1" fill="#fde047"/>
  <circle cx="42" cy="28" r="1" fill="#fde047"/>
</svg>
